<svg viewBox="0 0 180 180" fill="none" xmlns="http://www.w3.org/2000/svg"><path d="M22.917 70.833a6.25 6.25 0 1 1 0 12.5 6.25 6.25 0 0 1 0-12.5Zm27.083 0a6.25 6.25 0 1 1 0 12.5 6.25 6.25 0 0 1 0-12.5Zm27.083 0a6.25 6.25 0 1 1 0 12.5 6.25 6.25 0 0 1 0-12.5ZM22.917 43.75a6.25 6.25 0 1 1 0 12.5 6.25 6.25 0 0 1 0-12.5Zm27.083 0a6.25 6.25 0 1 1 0 12.5 6.25 6.25 0 0 1 0-12.5Zm27.083 0a6.25 6.25 0 1 1 0 12.5 6.25 6.25 0 0 1 0-12.5ZM22.917 16.666a6.25 6.25 0 1 1 0 12.501 6.25 6.25 0 0 1 0-12.5Zm27.083 0a6.25 6.25 0 1 1 0 12.5 6.25 6.25 0 0 1 0-12.5Zm27.083 0a6.25 6.25 0 1 1 0 12.5 6.25 6.25 0 0 1 0-12.5Zm25.834 54.167a6.25 6.25 0 1 1 0 12.5 6.25 6.25 0 0 1 0-12.5Zm27.083 0a6.248 6.248 0 0 1 6.25 6.25 6.247 6.247 0 0 1-6.25 6.25 6.248 6.248 0 0 1-6.25-6.25 6.247 6.247 0 0 1 6.25-6.25Zm27.083 0a6.25 6.25 0 1 1 0 12.501 6.25 6.25 0 0 1 0-12.5ZM102.917 43.75a6.25 6.25 0 1 1 0 12.5 6.25 6.25 0 0 1 0-12.5Zm27.083 0a6.248 6.248 0 0 1 6.25 6.25 6.247 6.247 0 0 1-6.25 6.25 6.248 6.248 0 0 1-6.25-6.25 6.247 6.247 0 0 1 6.25-6.25Zm27.083 0a6.25 6.25 0 1 1 0 12.5 6.25 6.25 0 0 1 0-12.5Zm-54.166-27.084a6.248 6.248 0 0 1 5.774 3.859 6.252 6.252 0 0 1-3.383 8.166 6.25 6.25 0 1 1-2.391-12.024Zm27.083 0a6.25 6.25 0 1 1 0 12.499 6.25 6.25 0 0 1 0-12.498Zm27.083 0a6.25 6.25 0 1 1 0 12.499 6.25 6.25 0 0 1 0-12.498ZM22.917 150.833a6.25 6.25 0 1 1-.002 12.502 6.25 6.25 0 0 1 .002-12.502Zm27.083 0a6.25 6.25 0 1 1-.002 12.502A6.25 6.25 0 0 1 50 150.833Zm27.083 0a6.25 6.25 0 1 1-.001 12.502 6.25 6.25 0 0 1 .001-12.502ZM22.917 123.75a6.25 6.25 0 1 1 .001 12.5 6.25 6.25 0 0 1-.001-12.5Zm27.083 0a6.25 6.25 0 1 1 .001 12.5 6.25 6.25 0 0 1-.001-12.5Zm27.083 0a6.25 6.25 0 1 1 .002 12.5 6.25 6.25 0 0 1-.002-12.5ZM22.917 96.666a6.25 6.25 0 1 1 0 12.501 6.25 6.25 0 0 1 0-12.5Zm27.083 0a6.25 6.25 0 1 1 0 12.5 6.25 6.25 0 0 1 0-12.5Zm27.083 0a6.25 6.25 0 1 1 0 12.5 6.25 6.25 0 0 1 0-12.5Zm25.834 54.167a6.25 6.25 0 1 1-.002 12.501 6.25 6.25 0 0 1 .002-12.501Zm27.083 0a6.249 6.249 0 1 1 0 12.498 6.249 6.249 0 0 1 0-12.498Zm27.083 0a6.251 6.251 0 0 1 4.42 10.67 6.25 6.25 0 1 1-4.42-10.67Zm-54.166-27.083a6.25 6.25 0 1 1 0 12.5 6.25 6.25 0 0 1 0-12.5Zm27.083 0a6.248 6.248 0 0 1 4.419 10.669A6.249 6.249 0 1 1 130 123.75Zm27.083 0a6.25 6.25 0 1 1 .002 12.5 6.25 6.25 0 0 1-.002-12.5Zm-54.166-27.084a6.248 6.248 0 0 1 5.774 3.859 6.251 6.251 0 1 1-5.774-3.859Zm27.083 0a6.25 6.25 0 1 1 0 12.499 6.25 6.25 0 0 1 0-12.499Zm27.083 0a6.25 6.25 0 1 1 0 12.499 6.25 6.25 0 0 1 0-12.499Z" fill="#e6e6e6"/></svg>