<svg viewBox="0 0 180 180" fill="none" xmlns="http://www.w3.org/2000/svg">
<path d="M22.9167 70.8332C24.5743 70.8332 26.164 71.4917 27.3361 72.6638C28.5082 73.8359 29.1667 75.4256 29.1667 77.0832C29.1667 78.7408 28.5082 80.3305 27.3361 81.5026C26.164 82.6747 24.5743 83.3332 22.9167 83.3332C21.2591 83.3332 19.6694 82.6747 18.4973 81.5026C17.3252 80.3305 16.6667 78.7408 16.6667 77.0832C16.6667 75.4256 17.3252 73.8359 18.4973 72.6638C19.6694 71.4917 21.2591 70.8332 22.9167 70.8332ZM50 70.8332C51.6576 70.8332 53.2473 71.4917 54.4194 72.6638C55.5915 73.8359 56.25 75.4256 56.25 77.0832C56.25 78.7408 55.5915 80.3305 54.4194 81.5026C53.2473 82.6747 51.6576 83.3332 50 83.3332C48.3424 83.3332 46.7527 82.6747 45.5806 81.5026C44.4085 80.3305 43.75 78.7408 43.75 77.0832C43.75 75.4256 44.4085 73.8359 45.5806 72.6638C46.7527 71.4917 48.3424 70.8332 50 70.8332ZM77.0834 70.8332C78.741 70.8332 80.3307 71.4917 81.5028 72.6638C82.6749 73.8359 83.3334 75.4256 83.3334 77.0832C83.3334 78.7408 82.6749 80.3305 81.5028 81.5026C80.3307 82.6747 78.741 83.3332 77.0834 83.3332C75.4257 83.3332 73.836 82.6747 72.6639 81.5026C71.4918 80.3305 70.8334 78.7408 70.8334 77.0832C70.8334 75.4256 71.4918 73.8359 72.6639 72.6638C73.836 71.4917 75.4257 70.8332 77.0834 70.8332ZM22.9167 43.7498C24.5743 43.7498 26.164 44.4083 27.3361 45.5804C28.5082 46.7525 29.1667 48.3422 29.1667 49.9998C29.1667 51.6574 28.5082 53.2472 27.3361 54.4193C26.164 55.5914 24.5743 56.2498 22.9167 56.2498C21.2591 56.2498 19.6694 55.5914 18.4973 54.4193C17.3252 53.2472 16.6667 51.6574 16.6667 49.9998C16.6667 48.3422 17.3252 46.7525 18.4973 45.5804C19.6694 44.4083 21.2591 43.7498 22.9167 43.7498ZM50 43.7498C51.6576 43.7498 53.2473 44.4083 54.4194 45.5804C55.5915 46.7525 56.25 48.3422 56.25 49.9998C56.25 51.6574 55.5915 53.2472 54.4194 54.4193C53.2473 55.5914 51.6576 56.2498 50 56.2498C48.3424 56.2498 46.7527 55.5914 45.5806 54.4193C44.4085 53.2472 43.75 51.6574 43.75 49.9998C43.75 48.3422 44.4085 46.7525 45.5806 45.5804C46.7527 44.4083 48.3424 43.7498 50 43.7498ZM77.0834 43.7498C78.741 43.7498 80.3307 44.4083 81.5028 45.5804C82.6749 46.7525 83.3334 48.3422 83.3334 49.9998C83.3334 51.6574 82.6749 53.2472 81.5028 54.4193C80.3307 55.5914 78.741 56.2498 77.0834 56.2498C75.4257 56.2498 73.836 55.5914 72.6639 54.4193C71.4918 53.2472 70.8334 51.6574 70.8334 49.9998C70.8334 48.3422 71.4918 46.7525 72.6639 45.5804C73.836 44.4083 75.4257 43.7498 77.0834 43.7498ZM22.9167 16.6665C23.7374 16.6665 24.5502 16.8282 25.3085 17.1423C26.0667 17.4563 26.7557 17.9167 27.3361 18.4971C27.9165 19.0775 28.3768 19.7664 28.6909 20.5247C29.005 21.283 29.1667 22.0957 29.1667 22.9165C29.1667 23.7373 29.005 24.55 28.6909 25.3083C28.3768 26.0666 27.9165 26.7556 27.3361 27.3359C26.7557 27.9163 26.0667 28.3767 25.3085 28.6908C24.5502 29.0048 23.7374 29.1665 22.9167 29.1665C21.2591 29.1665 19.6694 28.508 18.4973 27.3359C17.3252 26.1638 16.6667 24.5741 16.6667 22.9165C16.6667 21.2589 17.3252 19.6692 18.4973 18.4971C19.6694 17.325 21.2591 16.6665 22.9167 16.6665ZM50 16.6665C50.8208 16.6665 51.6335 16.8282 52.3918 17.1423C53.1501 17.4563 53.8391 17.9167 54.4194 18.4971C54.9998 19.0775 55.4602 19.7664 55.7743 20.5247C56.0884 21.283 56.25 22.0957 56.25 22.9165C56.25 23.7373 56.0884 24.55 55.7743 25.3083C55.4602 26.0666 54.9998 26.7556 54.4194 27.3359C53.8391 27.9163 53.1501 28.3767 52.3918 28.6908C51.6335 29.0048 50.8208 29.1665 50 29.1665C48.3424 29.1665 46.7527 28.508 45.5806 27.3359C44.4085 26.1638 43.75 24.5741 43.75 22.9165C43.75 21.2589 44.4085 19.6692 45.5806 18.4971C46.7527 17.325 48.3424 16.6665 50 16.6665ZM77.0834 16.6665C77.9041 16.6665 78.7168 16.8282 79.4751 17.1423C80.2334 17.4563 80.9224 17.9167 81.5028 18.4971C82.0831 19.0775 82.5435 19.7664 82.8576 20.5247C83.1717 21.283 83.3334 22.0957 83.3334 22.9165C83.3334 23.7373 83.1717 24.55 82.8576 25.3083C82.5435 26.0666 82.0831 26.7556 81.5028 27.3359C80.9224 27.9163 80.2334 28.3767 79.4751 28.6908C78.7168 29.0048 77.9041 29.1665 77.0834 29.1665C75.4257 29.1665 73.836 28.508 72.6639 27.3359C71.4918 26.1638 70.8334 24.5741 70.8334 22.9165C70.8334 21.2589 71.4918 19.6692 72.6639 18.4971C73.836 17.325 75.4257 16.6665 77.0834 16.6665Z" fill="#e6e6e6"/>
<path d="M102.917 70.8332C104.574 70.8332 106.164 71.4917 107.336 72.6638C108.508 73.8359 109.167 75.4256 109.167 77.0832C109.167 78.7408 108.508 80.3305 107.336 81.5026C106.164 82.6747 104.574 83.3332 102.917 83.3332C101.259 83.3332 99.6694 82.6747 98.4973 81.5026C97.3252 80.3305 96.6667 78.7408 96.6667 77.0832C96.6667 75.4256 97.3252 73.8359 98.4973 72.6638C99.6694 71.4917 101.259 70.8332 102.917 70.8332ZM130 70.8332C131.658 70.8332 133.247 71.4917 134.419 72.6638C135.592 73.8359 136.25 75.4256 136.25 77.0832C136.25 78.7408 135.592 80.3305 134.419 81.5026C133.247 82.6747 131.658 83.3332 130 83.3332C128.342 83.3332 126.753 82.6747 125.581 81.5026C124.408 80.3305 123.75 78.7408 123.75 77.0832C123.75 75.4256 124.408 73.8359 125.581 72.6638C126.753 71.4917 128.342 70.8332 130 70.8332ZM157.083 70.8332C158.741 70.8332 160.331 71.4917 161.503 72.6638C162.675 73.8359 163.333 75.4256 163.333 77.0832C163.333 78.7408 162.675 80.3305 161.503 81.5026C160.331 82.6747 158.741 83.3332 157.083 83.3332C155.426 83.3332 153.836 82.6747 152.664 81.5026C151.492 80.3305 150.833 78.7408 150.833 77.0832C150.833 75.4256 151.492 73.8359 152.664 72.6638C153.836 71.4917 155.426 70.8332 157.083 70.8332ZM102.917 43.7498C104.574 43.7498 106.164 44.4083 107.336 45.5804C108.508 46.7525 109.167 48.3422 109.167 49.9998C109.167 51.6574 108.508 53.2472 107.336 54.4193C106.164 55.5914 104.574 56.2498 102.917 56.2498C101.259 56.2498 99.6694 55.5914 98.4973 54.4193C97.3252 53.2472 96.6667 51.6574 96.6667 49.9998C96.6667 48.3422 97.3252 46.7525 98.4973 45.5804C99.6694 44.4083 101.259 43.7498 102.917 43.7498ZM130 43.7498C131.658 43.7498 133.247 44.4083 134.419 45.5804C135.592 46.7525 136.25 48.3422 136.25 49.9998C136.25 51.6574 135.592 53.2472 134.419 54.4193C133.247 55.5914 131.658 56.2498 130 56.2498C128.342 56.2498 126.753 55.5914 125.581 54.4193C124.408 53.2472 123.75 51.6574 123.75 49.9998C123.75 48.3422 124.408 46.7525 125.581 45.5804C126.753 44.4083 128.342 43.7498 130 43.7498ZM157.083 43.7498C158.741 43.7498 160.331 44.4083 161.503 45.5804C162.675 46.7525 163.333 48.3422 163.333 49.9998C163.333 51.6574 162.675 53.2472 161.503 54.4193C160.331 55.5914 158.741 56.2498 157.083 56.2498C155.426 56.2498 153.836 55.5914 152.664 54.4193C151.492 53.2472 150.833 51.6574 150.833 49.9998C150.833 48.3422 151.492 46.7525 152.664 45.5804C153.836 44.4083 155.426 43.7498 157.083 43.7498ZM102.917 16.6665C103.737 16.6665 104.55 16.8282 105.308 17.1423C106.067 17.4563 106.756 17.9167 107.336 18.4971C107.916 19.0775 108.377 19.7664 108.691 20.5247C109.005 21.283 109.167 22.0957 109.167 22.9165C109.167 23.7373 109.005 24.55 108.691 25.3083C108.377 26.0666 107.916 26.7556 107.336 27.3359C106.756 27.9163 106.067 28.3767 105.308 28.6908C104.55 29.0048 103.737 29.1665 102.917 29.1665C101.259 29.1665 99.6694 28.508 98.4973 27.3359C97.3252 26.1638 96.6667 24.5741 96.6667 22.9165C96.6667 21.2589 97.3252 19.6692 98.4973 18.4971C99.6694 17.325 101.259 16.6665 102.917 16.6665ZM130 16.6665C130.821 16.6665 131.634 16.8282 132.392 17.1423C133.15 17.4563 133.839 17.9167 134.419 18.4971C135 19.0775 135.46 19.7664 135.774 20.5247C136.088 21.283 136.25 22.0957 136.25 22.9165C136.25 23.7373 136.088 24.55 135.774 25.3083C135.46 26.0666 135 26.7556 134.419 27.3359C133.839 27.9163 133.15 28.3767 132.392 28.6908C131.634 29.0048 130.821 29.1665 130 29.1665C128.342 29.1665 126.753 28.508 125.581 27.3359C124.408 26.1638 123.75 24.5741 123.75 22.9165C123.75 21.2589 124.408 19.6692 125.581 18.4971C126.753 17.325 128.342 16.6665 130 16.6665ZM157.083 16.6665C157.904 16.6665 158.717 16.8282 159.475 17.1423C160.233 17.4563 160.922 17.9167 161.503 18.4971C162.083 19.0775 162.544 19.7664 162.858 20.5247C163.172 21.283 163.333 22.0957 163.333 22.9165C163.333 23.7373 163.172 24.55 162.858 25.3083C162.544 26.0666 162.083 26.7556 161.503 27.3359C160.922 27.9163 160.233 28.3767 159.475 28.6908C158.717 29.0048 157.904 29.1665 157.083 29.1665C155.426 29.1665 153.836 28.508 152.664 27.3359C151.492 26.1638 150.833 24.5741 150.833 22.9165C150.833 21.2589 151.492 19.6692 152.664 18.4971C153.836 17.325 155.426 16.6665 157.083 16.6665Z" fill="#e6e6e6"/>
<path d="M22.9167 150.833C24.5743 150.833 26.164 151.492 27.3361 152.664C28.5082 153.836 29.1667 155.426 29.1667 157.083C29.1667 158.741 28.5082 160.33 27.3361 161.503C26.164 162.675 24.5743 163.333 22.9167 163.333C21.2591 163.333 19.6694 162.675 18.4973 161.503C17.3252 160.33 16.6667 158.741 16.6667 157.083C16.6667 155.426 17.3252 153.836 18.4973 152.664C19.6694 151.492 21.2591 150.833 22.9167 150.833ZM50 150.833C51.6576 150.833 53.2473 151.492 54.4194 152.664C55.5915 153.836 56.25 155.426 56.25 157.083C56.25 158.741 55.5915 160.33 54.4194 161.503C53.2473 162.675 51.6576 163.333 50 163.333C48.3424 163.333 46.7527 162.675 45.5806 161.503C44.4085 160.33 43.75 158.741 43.75 157.083C43.75 155.426 44.4085 153.836 45.5806 152.664C46.7527 151.492 48.3424 150.833 50 150.833ZM77.0834 150.833C78.741 150.833 80.3307 151.492 81.5028 152.664C82.6749 153.836 83.3334 155.426 83.3334 157.083C83.3334 158.741 82.6749 160.33 81.5028 161.503C80.3307 162.675 78.741 163.333 77.0834 163.333C75.4257 163.333 73.836 162.675 72.6639 161.503C71.4918 160.33 70.8334 158.741 70.8334 157.083C70.8334 155.426 71.4918 153.836 72.6639 152.664C73.836 151.492 75.4257 150.833 77.0834 150.833ZM22.9167 123.75C24.5743 123.75 26.164 124.408 27.3361 125.58C28.5082 126.753 29.1667 128.342 29.1667 130C29.1667 131.657 28.5082 133.247 27.3361 134.419C26.164 135.591 24.5743 136.25 22.9167 136.25C21.2591 136.25 19.6694 135.591 18.4973 134.419C17.3252 133.247 16.6667 131.657 16.6667 130C16.6667 128.342 17.3252 126.753 18.4973 125.58C19.6694 124.408 21.2591 123.75 22.9167 123.75ZM50 123.75C51.6576 123.75 53.2473 124.408 54.4194 125.58C55.5915 126.753 56.25 128.342 56.25 130C56.25 131.657 55.5915 133.247 54.4194 134.419C53.2473 135.591 51.6576 136.25 50 136.25C48.3424 136.25 46.7527 135.591 45.5806 134.419C44.4085 133.247 43.75 131.657 43.75 130C43.75 128.342 44.4085 126.753 45.5806 125.58C46.7527 124.408 48.3424 123.75 50 123.75ZM77.0834 123.75C78.741 123.75 80.3307 124.408 81.5028 125.58C82.6749 126.753 83.3334 128.342 83.3334 130C83.3334 131.657 82.6749 133.247 81.5028 134.419C80.3307 135.591 78.741 136.25 77.0834 136.25C75.4257 136.25 73.836 135.591 72.6639 134.419C71.4918 133.247 70.8334 131.657 70.8334 130C70.8334 128.342 71.4918 126.753 72.6639 125.58C73.836 124.408 75.4257 123.75 77.0834 123.75ZM22.9167 96.6665C23.7374 96.6665 24.5502 96.8282 25.3085 97.1423C26.0667 97.4563 26.7557 97.9167 27.3361 98.4971C27.9165 99.0775 28.3768 99.7664 28.6909 100.525C29.005 101.283 29.1667 102.096 29.1667 102.917C29.1667 103.737 29.005 104.55 28.6909 105.308C28.3768 106.067 27.9165 106.756 27.3361 107.336C26.7557 107.916 26.0667 108.377 25.3085 108.691C24.5502 109.005 23.7374 109.167 22.9167 109.167C21.2591 109.167 19.6694 108.508 18.4973 107.336C17.3252 106.164 16.6667 104.574 16.6667 102.917C16.6667 101.259 17.3252 99.6692 18.4973 98.4971C19.6694 97.325 21.2591 96.6665 22.9167 96.6665ZM50 96.6665C50.8208 96.6665 51.6335 96.8282 52.3918 97.1423C53.1501 97.4563 53.8391 97.9167 54.4194 98.4971C54.9998 99.0775 55.4602 99.7664 55.7743 100.525C56.0884 101.283 56.25 102.096 56.25 102.917C56.25 103.737 56.0884 104.55 55.7743 105.308C55.4602 106.067 54.9998 106.756 54.4194 107.336C53.8391 107.916 53.1501 108.377 52.3918 108.691C51.6335 109.005 50.8208 109.167 50 109.167C48.3424 109.167 46.7527 108.508 45.5806 107.336C44.4085 106.164 43.75 104.574 43.75 102.917C43.75 101.259 44.4085 99.6692 45.5806 98.4971C46.7527 97.325 48.3424 96.6665 50 96.6665ZM77.0834 96.6665C77.9041 96.6665 78.7168 96.8282 79.4751 97.1423C80.2334 97.4563 80.9224 97.9167 81.5028 98.4971C82.0831 99.0775 82.5435 99.7664 82.8576 100.525C83.1717 101.283 83.3334 102.096 83.3334 102.917C83.3334 103.737 83.1717 104.55 82.8576 105.308C82.5435 106.067 82.0831 106.756 81.5028 107.336C80.9224 107.916 80.2334 108.377 79.4751 108.691C78.7168 109.005 77.9041 109.167 77.0834 109.167C75.4257 109.167 73.836 108.508 72.6639 107.336C71.4918 106.164 70.8334 104.574 70.8334 102.917C70.8334 101.259 71.4918 99.6692 72.6639 98.4971C73.836 97.325 75.4257 96.6665 77.0834 96.6665Z" fill="#e6e6e6"/>
<path d="M102.917 150.833C104.574 150.833 106.164 151.492 107.336 152.664C108.508 153.836 109.167 155.426 109.167 157.083C109.167 158.741 108.508 160.33 107.336 161.503C106.164 162.675 104.574 163.333 102.917 163.333C101.259 163.333 99.6694 162.675 98.4973 161.503C97.3252 160.33 96.6667 158.741 96.6667 157.083C96.6667 155.426 97.3252 153.836 98.4973 152.664C99.6694 151.492 101.259 150.833 102.917 150.833ZM130 150.833C131.658 150.833 133.247 151.492 134.419 152.664C135.592 153.836 136.25 155.426 136.25 157.083C136.25 158.741 135.592 160.33 134.419 161.503C133.247 162.675 131.658 163.333 130 163.333C128.342 163.333 126.753 162.675 125.581 161.503C124.408 160.33 123.75 158.741 123.75 157.083C123.75 155.426 124.408 153.836 125.581 152.664C126.753 151.492 128.342 150.833 130 150.833ZM157.083 150.833C158.741 150.833 160.331 151.492 161.503 152.664C162.675 153.836 163.333 155.426 163.333 157.083C163.333 158.741 162.675 160.33 161.503 161.503C160.331 162.675 158.741 163.333 157.083 163.333C155.426 163.333 153.836 162.675 152.664 161.503C151.492 160.33 150.833 158.741 150.833 157.083C150.833 155.426 151.492 153.836 152.664 152.664C153.836 151.492 155.426 150.833 157.083 150.833ZM102.917 123.75C104.574 123.75 106.164 124.408 107.336 125.58C108.508 126.753 109.167 128.342 109.167 130C109.167 131.657 108.508 133.247 107.336 134.419C106.164 135.591 104.574 136.25 102.917 136.25C101.259 136.25 99.6694 135.591 98.4973 134.419C97.3252 133.247 96.6667 131.657 96.6667 130C96.6667 128.342 97.3252 126.753 98.4973 125.58C99.6694 124.408 101.259 123.75 102.917 123.75ZM130 123.75C131.658 123.75 133.247 124.408 134.419 125.58C135.592 126.753 136.25 128.342 136.25 130C136.25 131.657 135.592 133.247 134.419 134.419C133.247 135.591 131.658 136.25 130 136.25C128.342 136.25 126.753 135.591 125.581 134.419C124.408 133.247 123.75 131.657 123.75 130C123.75 128.342 124.408 126.753 125.581 125.58C126.753 124.408 128.342 123.75 130 123.75ZM157.083 123.75C158.741 123.75 160.331 124.408 161.503 125.58C162.675 126.753 163.333 128.342 163.333 130C163.333 131.657 162.675 133.247 161.503 134.419C160.331 135.591 158.741 136.25 157.083 136.25C155.426 136.25 153.836 135.591 152.664 134.419C151.492 133.247 150.833 131.657 150.833 130C150.833 128.342 151.492 126.753 152.664 125.58C153.836 124.408 155.426 123.75 157.083 123.75ZM102.917 96.6665C103.737 96.6665 104.55 96.8282 105.308 97.1423C106.067 97.4563 106.756 97.9167 107.336 98.4971C107.916 99.0775 108.377 99.7664 108.691 100.525C109.005 101.283 109.167 102.096 109.167 102.917C109.167 103.737 109.005 104.55 108.691 105.308C108.377 106.067 107.916 106.756 107.336 107.336C106.756 107.916 106.067 108.377 105.308 108.691C104.55 109.005 103.737 109.167 102.917 109.167C101.259 109.167 99.6694 108.508 98.4973 107.336C97.3252 106.164 96.6667 104.574 96.6667 102.917C96.6667 101.259 97.3252 99.6692 98.4973 98.4971C99.6694 97.325 101.259 96.6665 102.917 96.6665ZM130 96.6665C130.821 96.6665 131.634 96.8282 132.392 97.1423C133.15 97.4563 133.839 97.9167 134.419 98.4971C135 99.0775 135.46 99.7664 135.774 100.525C136.088 101.283 136.25 102.096 136.25 102.917C136.25 103.737 136.088 104.55 135.774 105.308C135.46 106.067 135 106.756 134.419 107.336C133.839 107.916 133.15 108.377 132.392 108.691C131.634 109.005 130.821 109.167 130 109.167C128.342 109.167 126.753 108.508 125.581 107.336C124.408 106.164 123.75 104.574 123.75 102.917C123.75 101.259 124.408 99.6692 125.581 98.4971C126.753 97.325 128.342 96.6665 130 96.6665ZM157.083 96.6665C157.904 96.6665 158.717 96.8282 159.475 97.1423C160.233 97.4563 160.922 97.9167 161.503 98.4971C162.083 99.0775 162.544 99.7664 162.858 100.525C163.172 101.283 163.333 102.096 163.333 102.917C163.333 103.737 163.172 104.55 162.858 105.308C162.544 106.067 162.083 106.756 161.503 107.336C160.922 107.916 160.233 108.377 159.475 108.691C158.717 109.005 157.904 109.167 157.083 109.167C155.426 109.167 153.836 108.508 152.664 107.336C151.492 106.164 150.833 104.574 150.833 102.917C150.833 101.259 151.492 99.6692 152.664 98.4971C153.836 97.325 155.426 96.6665 157.083 96.6665Z" fill="#e6e6e6"/>
</svg>
